<svg xmlns="http://www.w3.org/2000/svg" version="1.1" xmlns:xlink="http://www.w3.org/1999/xlink" xmlns:svgjs="http://svgjs.dev/svgjs" width="2000" height="1500" viewBox="0 0 2000 1500"><rect width="2000" height="1500" fill="#000000"></rect><g transform="matrix(0.75,0,0,0.75,249.090909090909,282.7536437246963)"><svg viewBox="0 0 396 247" data-background-color="#000000" preserveAspectRatio="xMidYMid meet" height="1247" width="2000" xmlns="http://www.w3.org/2000/svg" xmlns:xlink="http://www.w3.org/1999/xlink"><g id="tight-bounds" transform="matrix(1,0,0,1,0.2400000000000091,-0.09999999999999432)"><svg viewBox="0 0 395.52 247.2" height="247.2" width="395.52"><g><svg></svg></g><g><svg viewBox="0 0 395.52 247.2" height="247.2" width="395.52"><g transform="matrix(1,0,0,1,133.85332763358778,47.215199999999996)"><svg viewBox="0 0 127.81334473282443 152.7696" height="152.7696" width="127.81334473282443"><g><svg viewBox="0 0 127.81334473282443 152.7696" height="152.7696" width="127.81334473282443"><g><svg viewBox="0 0 127.81334473282443 152.7696" height="152.7696" width="127.81334473282443"><g><svg viewBox="0 0 127.81334473282443 152.7696" height="152.7696" width="127.81334473282443"><g id="textblocktransform"><svg viewBox="0 0 127.81334473282443 152.7696" height="152.7696" width="127.81334473282443" id="textblock"><g><svg viewBox="0 0 127.81334473282443 152.7696" height="152.7696" width="127.81334473282443"><g transform="matrix(1,0,0,1,0,0)"><svg width="127.81334473282443" viewBox="1.3 -32.75 27.4 32.75" height="152.7696" data-palette-color="#f7d65a"><path d="M11.75-17.85L11.75-17.85 10.4-13.35 19.45-13.35 18.1-17.85Q17.3-20.55 16.5-23.25 15.7-25.95 15-28.75L15-28.75 14.8-28.75Q14.1-25.95 13.33-23.25 12.55-20.55 11.75-17.85ZM6.4 0L1.3 0 12.1-32.75 17.9-32.75 28.7 0 23.4 0 20.6-9.4 9.2-9.4 6.4 0Z" opacity="1" transform="matrix(1,0,0,1,0,0)" fill="#f7d65a" class="wordmark-text-0" data-fill-palette-color="primary" id="text-0"></path></svg></g></svg></g></svg></g></svg></g></svg></g></svg></g></svg></g><path d="M316.155 41.215L316.155 0 68.955 0 68.955 247.2 316.155 247.2 316.155 205.985 302.378 205.985 302.378 233.423 82.732 233.423 82.732 13.777 302.378 13.777 302.378 41.215Z" fill="#f7d65a" stroke="transparent" data-fill-palette-color="primary"></path></svg></g><defs></defs></svg><rect width="395.52" height="247.2" fill="none" stroke="none" visibility="hidden"></rect></g></svg></g></svg>